<!-- icon666.com - MILLIONS OF FREE VECTOR ICONS --><svg xmlns="http://www.w3.org/2000/svg" version="1.1" viewBox="0 -1 511.99949 511"><g id="surface1"><path d="M 511.933594 8.941406 C 511.535156 3.128906 505.558594 -0.910156 499.972656 0.960938 C 494.660156 2.742188 491.476562 9.636719 487.964844 13.710938 C 480.792969 22.023438 472.589844 29.386719 463.285156 35.238281 C 459.257812 37.773438 455.050781 40.132812 450.691406 42.058594 C 450.617188 42.054688 448.824219 42.757812 448.53125 42.859375 C 447.238281 43.308594 445.929688 43.710938 444.621094 44.109375 C 432.921875 47.640625 420.742188 50.652344 410.464844 57.5625 C 399.066406 65.226562 392.421875 76.183594 389.9375 88.699219 C 387.558594 88.164062 384.96875 88.789062 383.078125 90.605469 L 309.628906 161.285156 C 308.195312 162.664062 307.371094 164.554688 307.332031 166.542969 C 307.324219 166.933594 307.355469 167.320312 307.40625 167.699219 L 244.089844 232.554688 C 239.5625 230.179688 234.582031 228.53125 229.285156 227.8125 C 219.894531 226.542969 212.8125 218.441406 212.8125 208.964844 L 212.8125 202.25 L 212.984375 202.25 C 222.914062 202.25 230.992188 194.171875 230.992188 184.246094 L 230.992188 152.199219 C 230.992188 147.390625 229.121094 142.867188 225.71875 139.464844 C 222.320312 136.0625 217.796875 134.191406 212.988281 134.191406 L 109.011719 134.191406 C 99.085938 134.191406 91.007812 142.269531 91.007812 152.199219 L 91.007812 184.242188 C 91.007812 194.171875 99.085938 202.25 109.011719 202.25 L 109.1875 202.25 L 109.1875 208.964844 C 109.1875 218.441406 102.109375 226.542969 92.71875 227.8125 C 70.375 230.832031 53.523438 250.113281 53.523438 272.660156 L 53.523438 286.5 C 53.523438 290.640625 56.878906 293.996094 61.023438 293.996094 C 65.164062 293.996094 68.519531 290.640625 68.519531 286.5 L 68.519531 272.660156 C 68.519531 257.585938 79.785156 244.691406 94.726562 242.671875 C 111.519531 240.402344 124.183594 225.910156 124.183594 208.964844 L 124.183594 202.25 L 197.816406 202.25 L 197.816406 208.964844 C 197.816406 225.910156 210.480469 240.402344 227.273438 242.671875 C 229.222656 242.933594 231.105469 243.386719 232.914062 244.003906 L 68.519531 412.394531 L 68.519531 316.332031 C 68.519531 312.191406 65.164062 308.835938 61.023438 308.835938 C 56.882812 308.835938 53.523438 312.191406 53.523438 316.332031 L 53.523438 427.753906 L 5.71875 476.722656 C -1.738281 484.347656 -1.925781 496.203125 5.292969 503.714844 C 9.019531 507.585938 13.972656 509.535156 18.984375 509.535156 C 23.691406 509.535156 28.445312 507.816406 32.277344 504.355469 L 54.238281 484.539062 C 57.351562 499.140625 70.347656 510.128906 85.863281 510.128906 L 236.136719 510.128906 C 253.96875 510.128906 268.476562 495.621094 268.476562 477.789062 L 268.476562 291.25 L 352.90625 215.078125 C 353.320312 215.15625 353.738281 215.207031 354.167969 215.214844 C 354.214844 215.21875 354.261719 215.21875 354.3125 215.21875 C 356.25 215.21875 358.113281 214.46875 359.507812 213.121094 L 432.960938 142.441406 C 434.394531 141.0625 435.21875 139.171875 435.257812 137.183594 C 435.265625 136.796875 435.234375 136.414062 435.183594 136.035156 C 443.480469 134.488281 451.507812 131.894531 459.164062 127.933594 C 467.738281 123.5 460.160156 110.554688 451.59375 114.988281 C 443.027344 119.417969 433.703125 121.660156 424.15625 122.484375 L 417.847656 115.925781 C 419.335938 108.816406 421.855469 101.710938 427.570312 98.582031 C 432.160156 96.070312 440.542969 95.433594 446.671875 93.742188 C 466.347656 88.316406 480.105469 70.441406 490.378906 53.035156 C 490.210938 53.789062 490.050781 54.546875 489.871094 55.300781 C 486.234375 70.664062 480.882812 85.445312 471.433594 98.238281 C 469.007812 101.523438 470.914062 106.578125 474.125 108.496094 C 477.910156 110.765625 481.988281 109.046875 484.382812 105.808594 C 497.523438 88.015625 503.371094 66.210938 507.339844 44.769531 C 508.339844 39.363281 509.257812 33.957031 509.925781 28.5 C 510.675781 22.328125 512.355469 15.121094 511.933594 8.941406 Z M 106.003906 184.242188 L 106.003906 152.199219 C 106.003906 150.539062 107.351562 149.1875 109.011719 149.1875 L 212.988281 149.1875 C 214.074219 149.1875 214.785156 149.738281 215.117188 150.070312 C 215.445312 150.398438 215.996094 151.113281 215.996094 152.199219 L 215.996094 184.242188 C 215.996094 185.902344 214.648438 187.253906 212.984375 187.253906 L 109.011719 187.253906 C 107.351562 187.253906 106.003906 185.902344 106.003906 184.242188 Z M 22.226562 493.226562 C 20.394531 494.882812 17.644531 494.925781 16.101562 493.320312 C 14.558594 491.71875 14.710938 488.972656 16.445312 487.203125 L 316.796875 179.550781 L 341.472656 205.195312 Z M 253.480469 477.789062 C 253.480469 487.351562 245.703125 495.132812 236.136719 495.132812 L 85.863281 495.132812 C 76.300781 495.132812 68.519531 487.355469 68.519531 477.789062 L 68.519531 471.65625 L 253.480469 304.78125 Z M 354.515625 197.117188 L 325.429688 166.894531 L 388.074219 106.609375 L 414.953125 134.542969 C 415.460938 135.429688 416.171875 136.1875 417.070312 136.742188 L 417.160156 136.835938 Z M 460.792969 67.550781 C 454.394531 74.378906 447.875 78.246094 438.753906 80.234375 C 431.773438 81.753906 424.425781 82.625 418.3125 86.644531 C 412.113281 90.71875 408.296875 96.757812 405.832031 103.441406 L 403.789062 101.316406 C 403.652344 93.03125 405.039062 84.679688 410.105469 77.914062 C 414.445312 72.117188 421 68.171875 427.453125 65.398438 C 433.761719 62.683594 441.089844 60.808594 447.910156 58.773438 C 457.070312 56.046875 465.566406 51.78125 473.511719 46.460938 C 475.5 45.128906 477.449219 43.734375 479.363281 42.289062 C 474.066406 51.359375 467.953125 59.910156 460.792969 67.550781 Z M 460.792969 67.550781 " style=" stroke:none;fill-rule:nonzero;fill:rgb(0%,0%,0%);fill-opacity:1;"></path></g></svg>