<!-- icon666.com - MILLIONS OF FREE VECTOR ICONS --><svg id="Layer_1" enable-background="new 0 0 68 68" viewBox="0 0 68 68" xmlns="http://www.w3.org/2000/svg"><g><g><g><g><g><path d="m46.7693138 67h-41.0800781c-2.2060544 0-3.9999998-1.7939453-3.9999998-4v-58c0-2.2060547 1.7939453-4 3.9999998-4h41.0800781c2.2060547 0 4 1.7939453 4 4v58c0 2.2060547-1.7939453 4-4 4zm-41.0800781-64c-1.1025391 0-1.9999998.8974609-1.9999998 2v58c0 1.1025391.8974607 2 1.9999998 2h41.0800781c1.1025391 0 2-.8974609 2-2v-58c0-1.1025391-.8974609-2-2-2z"></path></g></g><g><g><path d="m44.7693138 52h-37.0800781c-.5527344 0-1-.4472656-1-1v-44c0-.5527344.4472656-1 1-1h37.0800781c.5527344 0 1 .4472656 1 1v44c0 .5527344-.4472656 1-1 1zm-36.0800781-2h35.0800781v-42h-35.0800781z"></path></g></g><g><g><g><path d="m63.2781029 44.9296875c-.0302734 0-.0615234-.0009766-.0917969-.0039063-.5507813-.0507813-.9550781-.5371094-.9052734-1.0869141 1.2529297-13.6699219.7998047-29.9228516.1884766-37.5117188-.0371094-.4921875-.265625-.9560547-.6435547-1.3085938-.3583984-.3232422-.8564453-.515625-1.3525391-.515625-1.0253906 0-1.8984375.7900391-1.9892578 1.7988281-.6601563 7.578125-1.1523438 23.7978516.1972656 37.4091797.0546875.5498047-.3466797 1.0390625-.8964844 1.09375-.5390625.0488281-1.0390625-.3466797-1.09375-.8964844-1.3632812-13.7480466-.8662109-30.1269529-.1992187-37.7822263.1816406-2.0322266 1.9306641-3.6230469 3.9814453-3.6230469.9990234 0 1.9599609.3701172 2.7060547 1.0419922.7568359.7089844 1.2080116 1.6367188 1.2841835 2.6259766.6162109 7.6542969 1.0732422 24.0546875-.1904297 37.8496094-.0478516.5195312-.4834023.9091796-.995121.9091796z"></path></g></g><g><g><path d="m60.4470482 60.0029297c-.1015625 0-.203125-.015625-.3017578-.046875-.2363281-.0742188-5.8027344-1.9355469-6.0888672-10.6503906-.0664063-1.9931641.7353516-4.1005859 2.0898438-5.5009766 1.1318359-1.1689453 2.5830078-1.7871094 4.1982422-1.7871094 1.90625 0 3.7988319.9345703 4.9384804 2.4394531.9306641 1.2275391 1.2490234 2.6992188.8740234 4.0371094-.6113281 2.2197266-1.4365234 3.4814453-2.2343788 4.7021484-.9541016 1.4589844-1.8554688 2.8369141-2.4951172 6.0048828-.0566406.2783203-.2285156.5195313-.4726563.6630859-.1552735.091797-.3310547.138672-.5078125.138672zm-.1025391-15.9853516c-1.0751953 0-2.0048828.3964844-2.7607422 1.1787109-.9765625 1.0087891-1.5761719 2.5957031-1.5292969 4.0429688.1689453 5.1347656 2.375 7.3896484 3.7060547 8.2871094.703125-2.6943359 1.6445313-4.1347656 2.4882813-5.4248047.7470703-1.1425781 1.4521484-2.2207031 1.9804726-4.1396484 0-.0019531.0009766-.0039063.0009766-.0058594.2089844-.7412109.0166016-1.5556641-.5410194-2.2919922-.7695314-1.015625-2.0507814-1.6464844-3.3447267-1.6464844z"></path></g></g><g><g><path d="m63.7693138 38.0400391h-6.5898438c-.5527344 0-1-.4472656-1-1s.4472656-1 1-1h6.5898438c.5527382 0 1.0000038.4472656 1.0000038 1s-.4472656 1-1.0000038 1z"></path></g></g></g></g><g><g><path d="m26.2292747 62c-1.9296875 0-3.5-1.5703125-3.5-3.5s1.5703125-3.5 3.5-3.5 3.5 1.5703125 3.5 3.5-1.5703125 3.5-3.5 3.5zm0-5c-.8271484 0-1.5.6728516-1.5 1.5s.6728516 1.5 1.5 1.5 1.5-.6728516 1.5-1.5-.6728515-1.5-1.5-1.5z"></path></g></g></g><g><g><g><g><g><path d="m27.8513451 34.6347656c-.2558594 0-.5117188-.0976563-.7070313-.2929688-.390625-.390625-.390625-1.0234375 0-1.4140625l5.7089844-5.7080078c.390625-.390625 1.0234375-.390625 1.4140625 0s.390625 1.0234375 0 1.4140625l-5.7089844 5.7080078c-.1953125.1953126-.4511719.2929688-.7070312.2929688z"></path></g></g><g><g><path d="m30.8952904 31.5947266c-.5527344 0-1-.4472656-1-1v-3.5361328c0-.5527344.4472656-1 1-1s1 .4472656 1 1v3.5361328c0 .5527343-.4472657 1-1 1z"></path></g></g></g><g><g><g><path d="m26.2663841 34.6347656c-.0029297 0-.0058594 0-.0097656 0h-.0546875c-.0078125 0-.0117188 0-.0195313 0h-7.6464844c-.1582031 0-.3154297-.0380859-.4560547-.1103516-1.0351563-.5302734-1.9453125-1.1845703-2.7070313-1.9443359-4.0068359-3.9990234-3.6884766-10.6279297-3.6728516-10.9082031.0273438-.5097656.4345703-.9160156.9443359-.9443359.2832031-.0107422 6.8994141-.3232422 10.9052734 3.6728516 1.2919922 1.2910156 2.1328125 2.8701172 2.6796875 4.4140625.546875-1.5439453 1.3876953-3.1220703 2.6787109-4.4130859 4.0078125-4 10.6259766-3.6875 10.90625-3.6738281.5097656.0283203.9169922.4345703.9443359.9443359.015625.2802734.3339844 6.9091797-3.6738281 10.9082031-.7636719.7636719-1.671875 1.4179688-2.6982422 1.9443359-.140625.0722656-.2978516.1103516-.4560547.1103516h-7.6542969c-.0039059-.0000001-.0068356-.0000001-.0097653-.0000001zm1.1054688-2h6.3105469c.7548828-.4101563 1.4238281-.9042969 1.9892578-1.4697266 2.5566406-2.5517578 3.0146484-6.6044922 3.0849609-8.4335938-1.828125.0722656-5.8789063.5332031-8.4355469 3.0849609-1.9550781 1.9550783-2.6826172 4.8027345-2.9492187 6.8183595zm-8.5888672 0h6.3037109c-.2666016-2.015625-.9941406-4.8632813-2.9501953-6.8193359-2.5566406-2.5507813-6.6064453-3.0117188-8.4345703-3.0839844.0703125 1.8291016.5283203 5.8818359 3.0839844 8.4326172.5634765.5625 1.234375 1.0566406 1.9970703 1.4707031z"></path></g></g><g><g><path d="m39.7693138 34.6347656h-27.0722656c-.5527344 0-1-.4472656-1-1s.4472656-1 1-1h27.0722656c.5527344 0 1 .4472656 1 1s-.4472656 1-1 1z"></path></g></g><g><g><path d="m24.6072044 34.6347656c-.2558594 0-.5117188-.0976563-.7070313-.2929688l-5.7089844-5.7080078c-.390625-.390625-.390625-1.0234375 0-1.4140625s1.0234375-.390625 1.4140625 0l5.7089844 5.7080078c.390625.390625.390625 1.0234375 0 1.4140625-.1953124.1953126-.4511718.2929688-.7070312.2929688z"></path></g></g><g><g><path d="m21.5603294 31.5947266c-.5527344 0-1-.4472656-1-1v-3.5361328c0-.5527344.4472656-1 1-1s1 .4472656 1 1v3.5361328c0 .5527343-.4472656 1-1 1z"></path></g></g></g></g><g><g><g><path d="m22.0945091 25.4482422c-.4277344 0-.8232422-.2753906-.9550781-.7050781-.3349609-1.0810547-.5039063-2.1533203-.5039063-3.1855469 0-5.65625 4.9072266-10.1152344 5.1162109-10.3027344.3789063-.3398438.9541016-.3398438 1.3330078 0 .2089844.1865234 5.1162109 4.6386719 5.1162109 10.3027344 0 .921875-.1308594 1.8603516-.390625 2.7890625-.1484375.5332031-.7050781.8417969-1.2314453.6943359-.5322266-.1474609-.8427734-.6992188-.6943359-1.2314453.2099609-.7539063.3164063-1.5117188.3164063-2.2519531 0-3.6142578-2.5400391-6.7978516-3.7822266-8.1386719-1.2421875 1.3427734-3.7832031 4.5292969-3.7832031 8.1386719 0 .8320313.1396484 1.7050781.4140625 2.5957031.1630859.5273438-.1318359 1.0869141-.6601563 1.25-.0976562.0302735-.1972655.0449219-.2949218.0449219z"></path></g></g><g><g><path d="m26.4138451 32.1220703c-.5527344 0-1-.4482422-1-1l.0009766-10.359375c0-.5527344.4482422-1 1-1 .5527344 0 1 .4482422 1 1l-.0009766 10.359375c0 .5527344-.4482422 1-1 1z"></path></g></g><g><g><path d="m26.4148216 25.5292969c-.2558594 0-.5117188-.0976563-.7070313-.2929688l-2.5-2.4980469c-.390625-.3896484-.390625-1.0234375 0-1.4140625s1.0234375-.390625 1.4140625 0l2.5 2.4980469c.390625.3896484.390625 1.0234375 0 1.4140625-.1953124.1953125-.4511718.2929688-.7070312.2929688z"></path></g></g></g></g><g><g><path d="m32.1189232 47h-11.7792969c-.5527344 0-1-.4472656-1-1s.4472656-1 1-1h11.7792969c.5527344 0 1 .4472656 1 1s-.4472656 1-1 1z"></path></g></g><g><g><path d="m39.7693138 40.8173828h-27.0800781c-.5527344 0-1-.4472656-1-1s.4472656-1 1-1h27.0800781c.5527344 0 1 .4472656 1 1s-.4472656 1-1 1z"></path></g></g></g></svg>